<svg xmlns="http://www.w3.org/2000/svg" viewBox="0 0 664 664"><defs><style>.cls-1{fill:#3fa9f5;}</style></defs><g id="Layer_2" data-name="Layer 2"><g id="LOGO"><path class="cls-1" d="M134.61,295.24l.68-.25.13-.05,1.78-.79c.07-.31.15-.63.22-.94.11-.67.18-1.1.22-1.29.08-.79.15-1.58.2-2.37.1-1.6.12-3.2.13-4.8s0-3,0-4.51c0-5.06-.15-10.13-.62-15.17,0-.54-.1-1.08-.16-1.61-.13-.78-.27-1.56-.44-2.34a12.56,12.56,0,0,1-1.45-1.8l-.07,0c-.7-.15-1.4-.27-2.11-.39l-1.36-.14c-1.46-.08-2.9-.18-4.36-.22a99.23,99.23,0,0,0-10.2.35c-1.6.13-3.2.3-4.8.5l-2.25.36c-3.54.59-7.12,1.2-10.59,2.13-2.8.75-5.55,1.73-6.82,3.08-.76.8-3.07,5-4.38,7.14a57.23,57.23,0,0,1-3.68,5.23,41.25,41.25,0,0,0,1.21,5.79,15.43,15.43,0,0,0,2.4,5.42c.22.36.21.42.17.4s.27.27.59.62a24.62,24.62,0,0,0,2.26,2.19c.09,0,2,1.28,2,1.31a30.68,30.68,0,0,0,2.85,1.47c.22.06,1.3.45,1.72.58,1.27.38,2.54.76,3.83,1.08,1.09.27,2.18.51,3.28.72,0,0,2.37.4,2.56.45,2.52.34,5.08.58,7.62.67a58.92,58.92,0,0,0,18.27-2.42A11.35,11.35,0,0,0,134.61,295.24Z"/><path class="cls-1" d="M604,0H60A60,60,0,0,0,0,60V604a60,60,0,0,0,60,60H604a60,60,0,0,0,60-60V60A60,60,0,0,0,604,0ZM147.67,426.73c-10.09.23-14.12-.34-23.9.17a151.4,151.4,0,0,1-18.2,0c-1-.07-2-.19-3-.33a86,86,0,0,1-9.64-.25,34.27,34.27,0,0,1-6.39-1.27,22.63,22.63,0,0,1-4.17-.79l-.28-.08a28.12,28.12,0,0,1-4.69-1l-.43-.13c-.37-.13-.74-.26-1.11-.41-12.35-1.84-24.07-4.93-33.86-13.42-8.75-7.59-14.7-18.69-17.47-29.84-3.31-13.34-2.63-27.71,2.76-40.4,3.81-9,9.65-19.29,19.85-21.74.58-.5,1.17-1,1.76-1.47C30.39,308,24.61,287.2,27.57,268a58.56,58.56,0,0,1,9.82-25,41.85,41.85,0,0,1,14.44-12.55,36.27,36.27,0,0,1,13.82-6.27c5.41-1.23,10.91-2.24,16.45-3a11.39,11.39,0,0,1,1.56-.51c8-1.89,16.08-2,24.25-1.8,4.52.11,9,0,13.43.21h0a95.27,95.27,0,0,1,13.91-.63,80.33,80.33,0,0,1,21.49.68c8.28.06,16.59-.21,24.86-.21a11.74,11.74,0,0,1,10.84,6.16,11.46,11.46,0,0,1,2.24,4.15,9.88,9.88,0,0,1,1,5.26c-.12,1.24-.25,2.49-.38,3.73,0,2.56,0,5.12-.11,7.66-.07,1.13-.21,2.26-.36,3.38v8.16a12.16,12.16,0,0,1-.22,2.28v28.37a11.7,11.7,0,0,1,.16,1.87,122,122,0,0,1-.43,12.39c1.23,11.16-.11,22.56-.19,33.76,0,3.43-.06,6.86-.06,10.29,0,1.55,0,3.09,0,4.64,0-.11.13,3.48,0,3.49s0-.13,0-.13.74,14.14,2.58,31.54c1.5,14,2.39,18.08,0,24a29.09,29.09,0,0,1-8,11A189.31,189.31,0,0,1,147.67,426.73Zm278.34-1h-.35c-6.22,1.67-13.64.19-19.73,0-5.18-.15-10.41-.62-15.58-.47-3.91.11-8.14.3-11.54-2-3.89-2.67-6-7.23-4.87-11.67,0-.07,0-.12,0-.18-.05-12.7,1.5-25.22,1.5-37.93a11.19,11.19,0,0,1,.29-2.53,85.38,85.38,0,0,1,.8-25c1-5.77.64-11.78.38-17.72,0-.31-.12-.63-.18-.94s-.19-.37-.29-.55l-.74.85a6.19,6.19,0,0,0-1.81,2.8c-2.06,5.16-4.2,10.28-6.3,15.42-2.24,5.47-4.32,11.05-7.05,16.3-1,2-2.07,3.95-3.19,5.87-.08.14-.21.34-.38.59-.84,3.78-2.6,6.86-4.22,10.51-1.95,4.41-3.51,8.82-5,13.38a74,74,0,0,1-4.63,10.43,60,60,0,0,1-4.25,10.95c-.42.86-.81,1.73-1.2,2.61l-.66,2.09v0c.27,6-5.05,10-10.5,10.5-8.27.78-13.75-6-16-13.13a2.15,2.15,0,0,1-.07-.24c-.38-.91-.78-1.81-1.15-2.72a38.82,38.82,0,0,1-1.35-3.74,23.47,23.47,0,0,1-.78-3.72c-1.25-2.56-2.33-5.2-3.42-7.85-1.65-4-3.72-7.92-4.54-12.2l0-.07c-.8-1.72-2.08-3.88-2.92-5.83-1.27-3-2.14-5.48-3.45-8a12.52,12.52,0,0,1-.87-2.21c-.86-1.9-1.71-3.81-2.53-5.75-4.29-10.17-7.54-21.46-14.06-30.5a8,8,0,0,1-1.24-2.7,8.44,8.44,0,0,1-.91.44q-.19.5-.42,1c-.2.57-.39,1.15-.57,1.73a10.77,10.77,0,0,1,.31,3.13c-.35,8.54.2,17.08,0,25.62a12,12,0,0,1,.1,1.62,19.7,19.7,0,0,1,.35,3.32c0,.35-.15,1.8-.27,3a36.61,36.61,0,0,1,.2,6.28c0,.33,0,.66,0,1,0,1.31-.06,2.63-.12,3.95a10.89,10.89,0,0,1,.33,2.69c0,6.67,1,13.34,1.07,20a1.47,1.47,0,0,1,0,.21c1,7.32,1.47,15.09-6.12,19.29-6.83,3.79-16.39,1.82-23.89,1.82-6.26,0-13.82,1.19-19.92-.6a11.82,11.82,0,0,1-5.26-3.06,10.4,10.4,0,0,1-3.29-6.76,36.13,36.13,0,0,1-.44-8.22,11.05,11.05,0,0,1,.41-2.65c.16-1.17.38-2.33.56-3.49.27-1.79.52-3.58.7-5.37a11.2,11.2,0,0,1-.17-2.21c.19-12.67,4.31-24.73,5.14-37.28.87-13.17.35-26.47.16-39.65-.18-11.7,0-23.38,0-35.08,0-5,.24-10.17-.65-15.1s-2.32-10-3.08-15.1c-1.5-10.07-.63-20,9.14-25.44,3.73-2.09,8-3,12.17-3.59,5.3-.76,6.44-1,11.55-1.5,8.46-.84,16.39,1.37,21.92,8.11,6.7,8.15,10.8,18.62,14.59,28.36.71,1.81,1.38,3.63,2,5.46,4.13,6.43,6.85,13.54,9.73,20.58,2.65,6.51,5.75,12.84,8.38,19.36q2.06,5.1,3.75,10.28c.77,1.18,1.55,2.34,2.33,3.49a7.93,7.93,0,0,1,2.72,3.23,13.8,13.8,0,0,0,6.14,6.71l.46.1c-.08,0,2.51.13,3.39.14h.81l.35-.4c.27-.29.55-.57.83-.84a28.25,28.25,0,0,1,1.87-3.47,11.48,11.48,0,0,1,2.37-2.71l.33-.73c0-.11.06-.21.1-.32a155,155,0,0,1,9.7-20.64,29.18,29.18,0,0,1,1.25-3.73c.59-1.46,1.23-2.91,1.9-4.35.16-.35,1.23-2.63.65-1.33,1-2.23,2-4.43,3.05-6.58.22-.66.44-1.31.68-2q3.44-9.51,7.43-18.83a164.23,164.23,0,0,1,8.57-17,19.92,19.92,0,0,1,1.42-3.22,23.36,23.36,0,0,1,1.48-2.32c1.28-3.52,2.72-7,4.16-10.35,2.87-6.65,9-10.46,15.49-9.34a23.08,23.08,0,0,1,4.18-.48c8.8-.27,17.69.13,26.5.13h.14a11.74,11.74,0,0,1,2.9-.19,16.36,16.36,0,0,1,4.09.72,10.53,10.53,0,0,1,4.64,2.7c.54.71,1.09,1.42,1.64,2.12a10.41,10.41,0,0,1,1.43,5.3c0,.21-.05.42-.08.62a9.72,9.72,0,0,1-.05,2.16,13.37,13.37,0,0,1-.24,4,.43.43,0,0,0,0,.11,12.22,12.22,0,0,1,.23,2.24,92.77,92.77,0,0,1-.15,10.28c-.11,1-.26,2-.43,3a12.07,12.07,0,0,1-.12,4.23c0,.14,0,.27-.08.41.46,3.9,0,8,0,12.16-.05,8.7-.86,17.29-.82,26a11.75,11.75,0,0,1-.17,2.1,15.46,15.46,0,0,1-.09,3.59c-.08.53-.19,1.07-.29,1.61.54,3.45.24,7.07.23,10.61,0,6.25-.35,12.49-.42,18.74a10.83,10.83,0,0,1,.31,2.68c0,7.18-.09,14.36.11,21.55a84,84,0,0,0,.39,9c.49,3.47,1.53,6.76,1.75,10.3a8.39,8.39,0,0,1-.14,2.19c0,.3,0,.6,0,.91,0,3.3-.13,6.63-.17,10,.12,2.25.12,4.51.09,6.77,0,1,.1,2,.19,3,.56,6.18,1.44,12.27,1.82,18.48C436.85,420.9,431.43,425.71,426,425.71Zm170.7-94.47c2.68,7,6.44,13.49,10.35,19.89q11.45,18.75,23.52,37.16c6.29,9.59,17.46,28,2.66,35.78-5.15,2.72-10.71,1.64-16.22,1.45-8-.28-16.14,0-24.19,0a10.57,10.57,0,0,1-4.63-1c-4.17.66-8.89-1.3-10.87-5.06a50.78,50.78,0,0,1-3.17-7.71c-.3-.91-.61-1.82-.92-2.73-.19-.38-.39-.76-.62-1.13a10.4,10.4,0,0,1-.92-2.05c-5.67-8.74-10.28-18.21-15.8-27.09-6.84-11-14.95-22.05-19.29-34.42a102.75,102.75,0,0,1-13.56,7.7c0,1.5.06,3,.08,4.51,0,2.84,0,5.69.07,8.52,0,.67.42,4.19.29,3.45,1.39,9.62,3.46,19.13,4.7,28.78,1.16,9.12-.21,17.15-5.52,23.24-4.17,4.76-13.77,6-33,8.49-13.68,1.77-18.06,1.34-22-1.36-5.66-3.89-7.42-10.48-8-12.64-1.28-4.82-.18-10.83,2.06-22.64,1.76-9.27,3-16,3.36-17.59a44.11,44.11,0,0,1,.46-10c0-.46,0-.92,0-1.38,0-8.38-.27-16.77.32-25.14a76.78,76.78,0,0,1,1.29-9.09V311.79c-.34-4.69-.7-9.37-1.14-14.05-.94-9.79-2.16-19.6-2.65-29.43-.48-9.56.09-19.13.22-28.7-.65-2.05-1.36-4.09-2.16-6.1-1.81-4.55,1.37-9.35,4.82-11.86,9.57-7,23.08-6.88,34.25-5.15,9.47,1.46,21.34,5.16,26.4,14.06,5.22,9.17,4.51,21.6,3.33,31.69-1.29,11.06-3.65,21.9-5.68,32.83,8.6,3.6,18.3-.88,26-6.31,10-7.07,16.68-17.65,20.68-29.09,2.48-7.08,4-14.41,6.1-21.59,1.83-6.14,3.29-13.15,9.09-16.82,5.4-3.4,13-2.92,19.13-2.89,8.2,0,16.39.51,24.58.55,7.49,0,13.73,9.07,9.07,15.8-6.73,9.72-8.2,22.42-12.27,33.37s-8.5,22-14.29,32.09A79.44,79.44,0,0,1,593.72,323C594.7,325.75,595.67,328.51,596.71,331.24Z"/><path class="cls-1" d="M136.06,339.86a70.07,70.07,0,0,0-25.29-1.59c-8.4.85-19.57,5-26,10.49a15.28,15.28,0,0,1-1.53,1.15c-.11.28-.22.55-.32.84-.94,2.59-1.75,5.23-2.48,7.89.15,6.5,2.24,12.37,7.07,16.92a22.58,22.58,0,0,0,5.35,3.11,45,45,0,0,0,5,1.26l1.5.23,1.67.14c9.21.67,18.69.66,27.92.42a15.76,15.76,0,0,0,4.55-.39c-2.16.64,2.12-1.9.16-.16,1.39-1.23,2.77-2.44,4.19-3.62a81.49,81.49,0,0,0-1.48-35.67C136.2,340.54,136.12,340.2,136.06,339.86Z"/></g></g></svg>