<svg xmlns="http://www.w3.org/2000/svg" xmlns:xlink="http://www.w3.org/1999/xlink" viewBox="0 0 1920 540"><defs><style>.cls-1{fill:url(#linear-gradient);}.cls-2{fill:url(#linear-gradient-2);}.cls-3{fill:url(#linear-gradient-3);}</style><linearGradient id="linear-gradient" x1="1899.65" y1="264.77" x2="1293.62" y2="264.77" gradientUnits="userSpaceOnUse"><stop offset="0" stop-color="#6156f9"/><stop offset="1" stop-color="#1a129f"/></linearGradient><linearGradient id="linear-gradient-2" x1="911.27" y1="200.75" x2="63.99" y2="200.75" xlink:href="#linear-gradient"/><linearGradient id="linear-gradient-3" x1="1920" y1="317.98" x2="0" y2="317.98" xlink:href="#linear-gradient"/></defs><g id="Layer_2" data-name="Layer 2"><g id="Layer_1-2" data-name="Layer 1"><path class="cls-1" d="M1899.65,349.2c-150.91-46.43-365,28.6-606-145.68C1549,190.82,1741.05,110.4,1899.65,349.2Z"/><path class="cls-2" d="M768.1,74.9a980,980,0,0,0,143.17,70.71c-186.07,108.91-370,349-722.5,217.57C142.64,346,101.2,333,64,323.56,283.06,118.08,431.07-125.83,768.1,74.9Z"/><path class="cls-3" d="M1920,356.39V540H0V310.23c19.8,3.14,41.09,7.54,64,13.33C101.2,333,142.64,346,188.77,363.18,541.26,494.59,725.2,254.52,911.27,145.61c104.86-61.37,210.4-81.09,347.17,30.81q17.68,14.46,35.18,27.1c241,174.28,455.12,99.25,606,145.68C1906.57,351.33,1913.35,353.71,1920,356.39Z"/></g></g></svg>